<svg xmlns="http://www.w3.org/2000/svg" width="709" height="709"><defs><linearGradient id="svg_5" x1="0" y1="0" x2="1" y2="0"><stop stop-color="#c19f17" stop-opacity="0.996094" offset="0"></stop><stop stop-color="#fff1bc" stop-opacity="0.992188" offset="0.484375"></stop><stop stop-color="#c19f17" stop-opacity="0.996094" offset="1"></stop></linearGradient><linearGradient id="svg_73" x1="0" y1="0.527344" x2="0.980469" y2="0"><stop stop-color="#c19f17" stop-opacity="0.996094" offset="0"></stop><stop stop-color="#fff1bc" stop-opacity="0.992188" offset="0.484375"></stop><stop stop-color="#c19f17" stop-opacity="0.996094" offset="1"></stop></linearGradient><linearGradient id="svg_9" x1="0.171875" y1="0.015625" x2="1" y2="0.785156"><stop stop-color="#ba9916" stop-opacity="0.992188" offset="0"></stop><stop stop-color="#fff1bc" stop-opacity="0.992188" offset="0.484375"></stop><stop stop-color="#c19f17" stop-opacity="0.996094" offset="1"></stop></linearGradient><linearGradient id="svg_10" x1="0.191406" y1="0" x2="1" y2="0.800781"><stop stop-color="#c19f17" stop-opacity="0.992188" offset="0"></stop><stop stop-color="#fff1bc" stop-opacity="0.992188" offset="0.453125"></stop><stop stop-color="#c19f17" stop-opacity="0.992188" offset="1"></stop></linearGradient></defs><g stroke="null"><title>background</title><rect stroke="null" x="-1" y="-1" width="711" height="711" id="canvas_background" fill="none"></rect><g stroke="null" id="canvasGrid" display="none"><rect stroke="null" id="svg_3" width="100%" height="100%" x="0" y="0" stroke-width="0" fill="url(#gridpattern)"></rect></g></g><g stroke="null"><title>Layer 1</title><metadata>Created by potrace 1.10, written by Peter Selinger 2001-2011</metadata><metadata>Created by potrace 1.10, written by Peter Selinger 2001-2011</metadata><metadata>Created by potrace 1.10, written by Peter Selinger 2001-2011</metadata><metadata>Created by potrace 1.10, written by Peter Selinger 2001-2011</metadata><metadata>Created by potrace 1.10, written by Peter Selinger 2001-2011</metadata><g id="svg_11"><ellipse stroke="url(#svg_10)" fill="url(#svg_9)" cx="354.6669" cy="354.332052" id="svg_2" rx="350" ry="350" stroke-width="3"></ellipse><ellipse stroke="#c19f17" fill="#ffffff" stroke-width="5" cx="354.6669" cy="354.332052" id="svg_6" rx="320" ry="320"></ellipse><g stroke-width="0" fill="url(#svg_5)" stroke="#000" id="svg_34"><g stroke="null" id="svg_29" fill="#000000" transform="matrix(0.06803758719804792,0,0,-0.06803758719804792,-48905.57554834209,-48834.08849701993) "><path stroke="null" fill="url(#svg_73)" id="svg_30" d="m721688.781796,-719375.086417c-12,-22 -102,-168 -151,-244c-10,-15 -22,-36 -28,-47c-6,-11 -19,-33 -30,-50c-11,-16 -24,-39 -30,-50c-6,-11 -26,-47 -44,-80c-66,-116 -76,-144 -76,-215c0,-62 3,-73 33,-111c35,-46 106,-88 150,-89c43,0 44,-25 0,-62c-60,-51 -208,-203 -275,-281c-33,-40 -65,-76 -70,-82c-14,-15 -28,15 -28,62c0,57 -37,210 -95,398c-7,22 -20,67 -30,100c-10,33 -24,75 -31,93c-8,18 -14,40 -14,50c-1,27 -40,106 -48,96c-4,-5 -16,-34 -25,-64c-9,-30 -26,-83 -37,-118c-11,-34 -27,-86 -35,-115c-7,-28 -18,-65 -24,-82c-9,-28 -18,-59 -56,-197c-49,-180 -42,-250 35,-328c37,-36 57,-47 100,-56c52,-11 113,-4 153,17c26,14 21,3 -30,-73c-82,-120 -143,-212 -153,-233c-6,-11 -26,-47 -45,-80c-20,-33 -47,-84 -61,-113c-28,-57 -39,-59 -50,-10c-3,18 -10,39 -14,48c-21,43 -50,99 -70,135c-13,22 -33,58 -45,80c-19,35 -39,70 -82,140c-23,37 -98,158 -115,184c-27,42 -46,74 -57,99c-15,32 -38,27 -45,-10c-11,-63 -28,-584 -22,-681c8,-124 36,-185 109,-231c45,-29 187,-30 234,-2c18,11 35,17 38,14c3,-3 -6,-34 -21,-69c-24,-60 -33,-81 -68,-176c-8,-21 -22,-65 -31,-98c-10,-33 -24,-78 -31,-100c-7,-22 -15,-56 -19,-76c-3,-21 -13,-43 -21,-50c-14,-11 -19,-9 -38,16c-42,59 -156,182 -272,295c-225,218 -303,290 -313,290c-15,0 -14,-20 4,-93c8,-34 22,-98 31,-142c35,-170 46,-222 60,-271c8,-28 14,-59 14,-70c0,-10 6,-39 14,-64c8,-25 24,-76 36,-113c22,-74 52,-125 91,-155c35,-27 104,-52 144,-52c38,0 110,25 136,47c8,7 19,13 24,13c9,0 1,-139 -15,-260c-5,-41 -9,-128 -10,-192c0,-64 -4,-119 -9,-122c-5,-3 -28,9 -52,27c-24,19 -51,37 -59,40c-8,4 -28,16 -45,27c-16,11 -37,23 -45,27c-8,4 -31,18 -50,31c-19,13 -44,28 -55,33c-11,5 -33,18 -50,28c-16,11 -50,31 -75,44c-25,14 -61,34 -80,45c-19,12 -57,33 -85,47c-27,15 -72,39 -100,55c-56,33 -65,35 -65,18c0,-13 250,-514 306,-613c18,-33 37,-67 41,-75c13,-29 75,-105 101,-126c70,-53 180,-57 275,-9c31,16 59,27 61,24c3,-2 8,-40 11,-84c6,-76 18,-149 50,-295c7,-36 16,-82 20,-102c6,-37 5,-38 -24,-38c-17,0 -45,6 -63,14c-32,13 -71,25 -190,60c-97,27 -156,43 -331,90c-28,8 -77,21 -108,30c-63,18 -95,20 -104,7c-4,-8 38,-63 88,-116c24,-25 119,-135 140,-162c12,-15 45,-53 73,-83c28,-30 89,-96 135,-147c87,-95 153,-156 203,-187c23,-14 50,-19 112,-20c78,0 85,2 133,34c28,19 51,38 51,43c0,4 6,7 13,7c12,0 47,-53 47,-71c0,-20 157,-346 170,-354c6,-4 10,-16 10,-28l0,-22l-425,3c-239,2 -425,-1 -425,-6c0,-5 25,-26 56,-48c31,-21 90,-64 133,-94c42,-30 85,-59 93,-65c9,-5 81,-53 160,-106c189,-127 221,-147 298,-187c58,-31 74,-35 146,-35c93,0 122,12 196,82c26,25 49,43 51,40c3,-2 33,-40 69,-85c90,-112 112,-138 196,-225c82,-86 90,-109 36,-109c-32,0 -86,-11 -209,-41c-22,-6 -58,-14 -80,-18c-48,-10 -122,-28 -190,-46c-27,-7 -79,-21 -115,-30c-36,-9 -88,-23 -116,-31c-28,-8 -60,-14 -72,-14c-51,0 -29,-39 33,-59c17,-5 55,-19 85,-31c30,-12 66,-25 80,-30c14,-5 50,-18 80,-30c30,-12 69,-25 85,-30c17,-5 55,-18 85,-30c30,-12 69,-25 85,-30c17,-5 46,-14 65,-21c19,-6 51,-17 70,-24c42,-15 123,-38 205,-59c59,-15 73,-14 155,10c67,20 138,87 161,152c16,45 40,41 129,-23c79,-57 322,-207 353,-218c21,-8 19,-36 -3,-48c-8,-4 -89,-44 -180,-90c-91,-45 -192,-96 -225,-115c-33,-18 -82,-45 -110,-59c-27,-14 -68,-36 -90,-49c-22,-12 -71,-40 -110,-61c-105,-57 -109,-71 -27,-80c31,-3 98,-10 147,-16c50,-6 142,-15 205,-20c63,-5 149,-13 190,-18c41,-5 163,-10 270,-10c214,-1 230,2 307,66c58,48 103,148 103,230c0,24 4,43 9,43c5,0 58,-16 118,-35c177,-57 266,-81 408,-110c44,-9 98,-21 120,-26c156,-39 734,-62 965,-38c201,20 228,24 430,65c144,30 367,90 435,119c17,7 45,16 63,19l32,8l0,-44c0,-47 23,-126 48,-168c25,-40 83,-90 131,-111c38,-17 66,-19 235,-18c105,0 225,5 266,10c41,5 127,13 190,18c63,5 156,14 205,20c50,6 116,13 148,16c83,9 77,23 -38,85c-44,24 -93,51 -110,61c-16,10 -52,30 -80,44c-27,14 -77,41 -110,59c-33,19 -134,70 -225,115c-91,46 -172,86 -180,90c-22,12 -24,40 -3,48c28,10 264,153 304,185c20,15 41,28 47,28c6,0 12,3 14,8c7,15 68,52 87,52c12,0 23,-11 30,-32c23,-65 94,-132 161,-152c82,-24 96,-25 155,-10c82,21 163,44 205,59c19,7 51,18 70,24c19,7 49,16 65,21c17,5 55,18 85,30c30,12 69,25 85,30c17,5 55,18 85,30c30,12 66,25 80,30c14,5 50,18 80,30c30,12 69,26 85,31c62,20 84,59 33,59c-12,0 -44,6 -72,14c-28,8 -80,22 -116,31c-36,9 -87,23 -115,30c-68,18 -142,36 -190,46c-22,4 -58,12 -80,18c-123,30 -177,41 -209,41c-54,0 -46,23 37,109c83,87 105,113 195,225c36,45 66,83 69,85c2,3 25,-15 51,-40c74,-70 103,-82 196,-82c107,1 127,10 461,232c88,58 194,131 237,161c42,30 101,73 132,94c31,22 56,43 56,48c0,5 -186,8 -425,6l-425,-3l0,22c0,12 4,24 10,28c8,5 35,58 141,280c16,33 29,66 29,72c0,20 34,73 48,73c6,0 12,-3 12,-7c0,-5 23,-24 51,-43c48,-32 55,-34 133,-34c62,1 89,6 112,20c50,32 116,92 203,187c46,51 107,116 135,146c28,30 60,66 71,81c18,25 114,135 142,165c50,53 92,108 88,116c-9,13 -41,11 -104,-7c-54,-15 -103,-29 -213,-58c-49,-13 -89,-24 -228,-63c-112,-32 -156,-46 -188,-59c-18,-8 -46,-14 -62,-14c-30,0 -30,0 -23,48c3,26 12,64 20,86c7,21 13,53 13,72c0,18 5,45 10,60c6,15 16,78 21,138c6,61 13,113 15,115c3,3 30,-8 61,-24c95,-48 205,-44 275,9c26,21 88,97 101,126c4,8 23,42 41,75c56,99 306,600 306,613c0,7 -3,12 -6,12c-6,0 -131,-67 -189,-101c-16,-10 -52,-30 -80,-45c-89,-49 -100,-55 -130,-74c-16,-11 -39,-24 -50,-29c-11,-5 -36,-20 -55,-33c-19,-13 -42,-27 -50,-31c-8,-4 -28,-16 -45,-27c-16,-11 -37,-23 -45,-27c-8,-3 -35,-21 -59,-40c-24,-18 -47,-30 -52,-27c-5,3 -9,58 -10,122c0,64 -4,153 -9,197c-17,140 -23,255 -15,255c5,0 16,-6 24,-13c26,-22 98,-47 136,-47c40,0 109,25 144,52c39,30 69,81 91,155c12,37 28,88 36,113c8,25 14,54 14,64c0,11 6,42 14,70c8,28 22,87 31,131c10,44 24,112 32,150c8,39 21,98 29,132c17,73 18,93 3,93c-10,0 -88,-72 -313,-290c-116,-113 -230,-236 -272,-295c-19,-25 -24,-27 -38,-16c-8,7 -18,29 -22,50c-3,20 -10,50 -16,66c-6,17 -14,46 -18,65c-4,19 -14,51 -20,70c-30,83 -39,107 -53,145c-36,98 -50,131 -59,148c-14,29 -1,33 35,11c25,-15 50,-19 113,-19c101,0 142,20 189,91c32,48 35,58 41,160c6,106 -11,616 -22,682c-7,37 -30,42 -44,10c-6,-13 -19,-36 -30,-53c-10,-16 -25,-40 -32,-51c-7,-12 -32,-53 -56,-90c-24,-38 -48,-78 -55,-89c-43,-70 -63,-105 -82,-140c-12,-22 -32,-58 -45,-80c-20,-36 -49,-92 -70,-135c-4,-9 -11,-30 -14,-48c-11,-49 -22,-47 -50,10c-14,29 -41,80 -61,113c-19,33 -39,69 -45,80c-10,20 -61,98 -152,234c-53,78 -56,86 -30,72c39,-21 100,-28 152,-17c43,9 63,20 100,56c86,87 87,167 4,431c-7,26 -14,54 -14,63c0,8 -6,30 -14,48c-7,18 -21,60 -31,93c-9,33 -23,78 -30,100c-7,22 -21,67 -31,100c-10,33 -22,64 -26,69c-8,10 -47,-69 -48,-96c0,-10 -6,-32 -14,-50c-7,-18 -21,-60 -31,-93c-10,-33 -23,-78 -30,-100c-58,-185 -95,-342 -95,-398c0,-72 -13,-78 -57,-27c-99,117 -234,257 -317,328c-41,36 -42,62 -3,62c33,0 97,27 125,53c46,43 63,82 63,149c0,66 -10,96 -77,213c-18,33 -38,69 -44,80c-6,11 -19,34 -30,50c-11,17 -24,39 -30,50c-6,11 -18,32 -28,47c-36,56 -137,220 -148,239c-28,49 -33,23 -54,-286c-10,-146 -10,-399 1,-435c5,-20 -15,-19 -43,2c-69,50 -180,128 -184,128c-2,0 -33,20 -70,45c-36,25 -72,45 -80,45c-8,0 -17,7 -20,15c-7,17 -44,21 -44,4c0,-6 9,-13 20,-16c11,-3 20,-9 20,-14c0,-6 8,-12 18,-16c9,-3 33,-19 53,-35c20,-15 40,-28 44,-28c9,0 153,-110 265,-203c94,-78 420,-403 420,-418c0,-4 10,-19 23,-32c94,-104 232,-296 330,-462c26,-44 52,-87 56,-95c43,-70 178,-359 216,-460c9,-25 23,-60 31,-78c8,-18 14,-39 14,-47c0,-8 6,-29 14,-47c13,-31 22,-59 60,-198c31,-114 65,-281 93,-455c14,-90 17,-176 17,-470c-1,-242 -5,-381 -13,-425c-7,-36 -16,-94 -21,-130c-18,-147 -93,-456 -136,-558c-8,-18 -14,-39 -14,-47c0,-8 -6,-29 -14,-47c-8,-18 -22,-53 -31,-78c-10,-25 -23,-58 -31,-75c-7,-16 -22,-50 -32,-75c-23,-53 -108,-228 -121,-250c-5,-8 -12,-22 -15,-30c-4,-8 -15,-28 -26,-45c-11,-16 -24,-39 -30,-50c-6,-11 -19,-33 -30,-50c-11,-16 -23,-37 -27,-45c-3,-8 -19,-31 -35,-51c-15,-20 -28,-40 -28,-43c0,-6 -177,-245 -189,-256c-3,-3 -30,-34 -60,-70c-69,-83 -333,-346 -386,-385c-22,-16 -44,-34 -50,-40c-24,-27 -337,-255 -350,-255c-2,0 -23,-13 -47,-29c-24,-16 -62,-39 -86,-52c-24,-13 -69,-38 -100,-56c-88,-49 -166,-86 -302,-143c-69,-28 -140,-58 -158,-66c-18,-8 -39,-14 -47,-14c-8,0 -29,-6 -47,-14c-38,-16 -106,-37 -198,-61c-128,-33 -177,-44 -275,-60c-55,-9 -116,-20 -135,-25c-64,-17 -353,-35 -545,-35c-197,0 -465,27 -590,60c-33,8 -75,15 -94,15c-19,0 -57,6 -85,14c-28,8 -80,22 -116,31c-91,24 -159,45 -198,61c-18,8 -39,14 -47,14c-8,0 -29,6 -47,14c-18,8 -69,29 -113,47c-143,58 -250,108 -350,164c-33,19 -67,37 -75,41c-22,11 -137,81 -200,122c-67,43 -285,207 -311,233c-11,11 -23,19 -28,19c-13,0 -340,325 -402,400c-30,36 -57,67 -60,70c-12,11 -189,250 -189,256c0,3 -13,23 -28,43c-16,20 -32,43 -35,51c-4,8 -16,29 -27,45c-11,17 -24,39 -30,50c-6,11 -19,34 -30,50c-18,29 -134,261 -167,335c-9,19 -20,44 -26,54c-5,11 -13,31 -17,45c-5,14 -18,51 -30,81c-35,91 -78,228 -105,330c-9,36 -23,88 -31,116c-8,28 -14,61 -14,73c0,13 -7,50 -15,84c-40,172 -50,293 -49,652c0,387 9,481 80,795c25,110 71,273 90,318c8,18 14,39 14,47c0,8 6,29 14,47c8,18 22,53 31,78c17,44 31,79 59,143c17,40 144,297 156,317c5,8 31,51 57,95c98,166 236,358 331,462c12,13 22,28 22,32c0,15 326,340 420,418c112,93 256,203 265,203c4,0 24,14 45,30c21,17 43,30 48,30c6,0 15,6 19,13c4,8 16,16 26,20c9,3 17,11 17,17c0,16 -37,12 -44,-5c-3,-8 -12,-15 -20,-15c-8,0 -44,-20 -80,-45c-37,-25 -68,-45 -70,-45c-3,0 -42,-27 -88,-61c-123,-89 -126,-91 -137,-85c-6,4 -6,18 0,39c17,58 11,283 -18,647c-5,76 -16,92 -34,56z"></path><path stroke="null" fill="url(#svg_73)" id="svg_31" d="m725784.781796,-719801.086417c-8,-13 15,-24 27,-12c6,6 4,11 -6,15c-8,3 -18,2 -21,-3z"></path><path stroke="null" fill="url(#svg_73)" id="svg_32" d="m722194.781796,-719832.086417c-4,-6 -4,-13 -1,-16c8,-8 36,5 36,17c0,13 -27,13 -35,-1z"></path><path stroke="null" fill="url(#svg_73)" id="svg_33" d="m725831.781796,-719833.086417c3,-7 13,-15 22,-16c12,-3 17,1 14,10c-3,7 -13,15 -22,16c-12,3 -17,-1 -14,-10z"></path></g></g><text font-style="normal" font-weight="bold" stroke="#c19f17" transform="matrix(6.063342571258545,0,0,6.063342571258545,-1380.5519979447126,-1880.2406179457903) " xml:space="preserve" text-anchor="start" font-family="'Trebuchet MS', Gadget, sans-serif" font-size="24" id="svg_35" y="371.002801" x="258.155021" fill-opacity="null" stroke-opacity="null" stroke-width="0" fill="#000000">BEST</text><text stroke="#c19f17" transform="matrix(3.1048383712768555,0,0,3.1048383712768555,-635.6611881256104,-1129.574667185545) " xml:space="preserve" text-anchor="start" font-family="'Trebuchet MS', Gadget, sans-serif" font-size="24" id="svg_36" y="511.630886" x="260.346299" stroke-opacity="null" stroke-width="0" fill="#7f7f7f">WEB FIRMS</text><ellipse ry="5.499838" rx="5.499838" id="svg_54" cy="500.815958" cx="248.670037" stroke-width="0" stroke="null" fill="#c19f17"></ellipse><ellipse ry="5.499838" rx="5.499838" id="svg_55" cy="511.815634" cx="278.669153" stroke-width="0" stroke="null" fill="#c19f17"></ellipse><ellipse ry="5.499838" rx="5.499838" id="svg_56" cy="518.815428" cx="309.668239" stroke-width="0" stroke="null" fill="#c19f17"></ellipse><ellipse ry="5.499838" rx="5.499838" id="svg_57" cy="522.81531" cx="339.667355" stroke-width="0" stroke="null" fill="#c19f17"></ellipse><ellipse ry="5.499838" rx="5.499838" id="svg_58" cy="522.81531" cx="368.666501" stroke-width="0" stroke="null" fill="#c19f17"></ellipse><ellipse ry="5.499838" rx="5.499838" id="svg_59" cy="517.815457" cx="397.665646" stroke-width="0" stroke="null" fill="#c19f17"></ellipse><ellipse ry="5.499838" rx="5.499838" id="svg_60" cy="508.815723" cx="428.664732" stroke-width="0" stroke="null" fill="#c19f17"></ellipse><ellipse ry="5.499838" rx="5.499838" id="svg_61" cy="496.816076" cx="458.663848" stroke-width="0" stroke="null" fill="#c19f17"></ellipse><ellipse stroke="null" ry="65.031394" rx="64.50287" id="svg_52" cy="131.526524" cx="363.670775" stroke-width="0" fill="#c19f17"></ellipse><ellipse stroke="#c19f17" ry="65.031394" rx="64.50287" id="svg_50" cy="131.526524" cx="359.670849" stroke-opacity="null" stroke-width="0" fill="#000000"></ellipse><ellipse stroke="#c19f17" ry="55.583951" rx="56.003027" id="svg_51" cy="135.974058" cx="362.170804" stroke-opacity="null" stroke-width="0" fill="#ffffff"></ellipse><g stroke="null" id="svg_49"><g id="svg_48" fill="#000000" transform="matrix(0.13133419429929588,0,0,-0.13133419429929588,315.0413831766682,421.5179148221879) "><path stroke="null" fill="#000000" id="svg_47" d="m251.592936,2693.312866c-67,-10 -141,-48 -233,-121c-29,-23 -104,-141 -111,-177c-4,-18 -12,-35 -17,-38c-5,-4 -9,-63 -9,-133c0,-133 7,-162 58,-259c24,-46 112,-139 146,-154c11,-5 39,-20 61,-32c53,-30 169,-61 200,-53l25,6l0,473c0,355 -3,476 -12,485c-13,13 -33,13 -108,3zm-50,-148c0,-16 -42,-92 -60,-108c-23,-21 -70,-13 -70,12c0,26 80,103 107,103c13,0 23,-3 23,-7zm118,-60c3,-33 -19,-59 -43,-49c-20,7 -19,41 2,66c23,26 37,21 41,-17zm-231,-121c11,-7 2,-89 -12,-113c-9,-13 -73,-11 -81,3c-12,20 -4,81 13,101c16,17 59,23 80,9zm228,-57l0,-60l-64,-3c-36,-2 -69,2 -75,8c-15,15 -7,78 12,101c14,16 28,19 72,17l55,-3l0,-60zm-227,-170c2,-11 8,-30 14,-42c17,-35 4,-53 -40,-53c-31,0 -41,5 -55,29c-9,16 -17,43 -17,61c0,31 0,31 47,28c39,-2 48,-7 51,-23zm230,-37l3,-58l-60,0c-56,0 -61,2 -67,25c-3,14 -10,25 -15,25c-5,0 -9,16 -9,35l0,36l73,-3l72,-3l3,-57zm-141,-164c28,-30 24,-59 -7,-49c-29,9 -68,48 -63,63c8,21 44,13 70,-14zm141,-3c6,-36 -13,-46 -38,-21c-26,26 -19,53 12,48c15,-2 24,-11 26,-27z"></path></g></g><g stroke="null" id="svg_8" transform="rotate(180 394.34429931640625,131.16261291503906) " fill="url(#svg_73)" stroke-width="0"><g id="svg_7" fill="#000000" transform="matrix(0.13133419429929588,0,0,-0.13133419429929588,315.0413831766682,421.5179148221879) "><path stroke="null" fill="#c19f17" id="svg_4" d="m728.825246,2693.312866c-67,-10 -141,-48 -233,-121c-29,-23 -104,-141 -111,-177c-4,-18 -12,-35 -17,-38c-5,-4 -9,-63 -9,-133c0,-133 7,-162 58,-259c24,-46 112,-139 146,-154c11,-5 39,-20 61,-32c53,-30 169,-61 200,-53l25,6l0,473c0,355 -3,476 -12,485c-13,13 -33,13 -108,3zm-50,-148c0,-16 -42,-92 -60,-108c-23,-21 -70,-13 -70,12c0,26 80,103 107,103c13,0 23,-3 23,-7zm118,-60c3,-33 -19,-59 -43,-49c-20,7 -19,41 2,66c23,26 37,21 41,-17zm-231,-121c11,-7 2,-89 -12,-113c-9,-13 -73,-11 -81,3c-12,20 -4,81 13,101c16,17 59,23 80,9zm228,-57l0,-60l-64,-3c-36,-2 -69,2 -75,8c-15,15 -7,78 12,101c14,16 28,19 72,17l55,-3l0,-60zm-227,-170c2,-11 8,-30 14,-42c17,-35 4,-53 -40,-53c-31,0 -41,5 -55,29c-9,16 -17,43 -17,61c0,31 0,31 47,28c39,-2 48,-7 51,-23zm230,-37l3,-58l-60,0c-56,0 -61,2 -67,25c-3,14 -10,25 -15,25c-5,0 -9,16 -9,35l0,36l73,-3l72,-3l3,-57zm-141,-164c28,-30 24,-59 -7,-49c-29,9 -68,48 -63,63c8,21 44,13 70,-14zm141,-3c6,-36 -13,-46 -38,-21c-26,26 -19,53 12,48c15,-2 24,-11 26,-27z"></path></g></g></g></g></svg>